<?xml version="1.0" encoding="UTF-8"?>
<svg width="119px" height="50px" viewBox="0 0 119 50" version="1.1" xmlns="http://www.w3.org/2000/svg" xmlns:xlink="http://www.w3.org/1999/xlink">
    <!-- Generator: Sketch 52.6 (67491) - http://www.bohemiancoding.com/sketch -->
    <title>Group 44@1x</title>
    <desc>Created with Sketch.</desc>
    <g id="Page-1" stroke="none" stroke-width="1" fill="none" fill-rule="evenodd">
        <g id="Group-44">
            <path d="M1.855,32.7 C2.08300114,32.6619998 2.33949857,32.6335001 2.6245,32.6145 C2.90950142,32.5954999 3.20083184,32.5765001 3.4985,32.5575 C3.79616815,32.5384999 4.08433194,32.5258334 4.363,32.5195 C4.64166806,32.5131666 4.88866559,32.51 5.104,32.51 C6.15533859,32.51 7.03249649,32.6714984 7.7355,32.9945 C8.43850351,33.3175016 9.00216455,33.7734971 9.4265,34.3625 C9.85083545,34.9515029 10.1516658,35.6576626 10.329,36.481 C10.5063342,37.3043375 10.595,38.2226616 10.595,39.236 C10.595,40.1606713 10.5095009,41.0441625 10.3385,41.8865 C10.1674991,42.7288375 9.86666882,43.4698301 9.436,44.1095 C9.00533118,44.7491699 8.42267034,45.2589981 7.688,45.639 C6.95332966,46.0190019 6.02867224,46.209 4.914,46.209 C4.74933251,46.209 4.52766806,46.2026667 4.249,46.19 C3.97033194,46.1773333 3.67900152,46.1615001 3.375,46.1425 C3.07099848,46.1234999 2.77966806,46.1045001 2.501,46.0855 C2.22233194,46.0664999 2.00700076,46.0443335 1.855,46.019 L1.855,32.7 Z M5.351,34.714 C5.14833232,34.714 4.94250104,34.7171666 4.7335,34.7235 C4.52449896,34.7298334 4.36300057,34.7456665 4.249,34.771 L4.249,43.929 C4.28700019,43.9416667 4.35349953,43.9511666 4.4485,43.9575 C4.54350047,43.9638334 4.6448328,43.9701666 4.7525,43.9765 C4.8601672,43.9828334 4.96149953,43.9891666 5.0565,43.9955 C5.15150047,44.0018334 5.21799981,44.005 5.256,44.005 C5.82600285,44.005 6.29466483,43.8720013 6.662,43.606 C7.02933517,43.3399987 7.31749896,42.9853356 7.5265,42.542 C7.73550104,42.0986645 7.88116625,41.5888362 7.9635,41.0125 C8.04583374,40.4361638 8.087,39.8313365 8.087,39.198 C8.087,38.6153304 8.05216702,38.0516694 7.9825,37.507 C7.91283299,36.9623306 7.77983432,36.4841687 7.5835,36.0725 C7.38716569,35.6608313 7.10850181,35.3315012 6.7475,35.0845 C6.3864982,34.8374988 5.92100285,34.714 5.351,34.714 Z M12.172,36.5 L14.433,36.5 L14.433,46 L12.172,46 L12.172,36.5 Z M11.925,33.821 C11.925,33.4409981 12.0453321,33.1275012 12.286,32.8805 C12.5266679,32.6334988 12.8686644,32.51 13.312,32.51 C13.7553355,32.51 14.1099987,32.6303321 14.376,32.871 C14.6420013,33.1116679 14.775,33.4283314 14.775,33.821 C14.775,34.2136686 14.6420013,34.5239989 14.376,34.752 C14.1099987,34.9800011 13.7553355,35.094 13.312,35.094 C12.8686644,35.094 12.5266679,34.9768345 12.286,34.7425 C12.0453321,34.5081655 11.925,34.2010019 11.925,33.821 Z M19.145,41.459 L19.373,42.96 L19.449,42.96 L19.658,41.44 L20.836,36.5 L23.268,36.5 L20.076,46.095 L18.556,46.095 L15.193,36.5 L17.834,36.5 L19.145,41.459 Z M30.26,45.297 C29.9433317,45.5756681 29.5126694,45.8036658 28.968,45.981 C28.4233306,46.1583342 27.8533363,46.247 27.258,46.247 C26.59933,46.247 26.0325024,46.1330011 25.5575,45.905 C25.0824976,45.6769989 24.6930015,45.3476688 24.389,44.917 C24.0849985,44.4863312 23.8601674,43.9638364 23.7145,43.3495 C23.5688326,42.7351636 23.496,42.0353373 23.496,41.25 C23.496,39.5399915 23.8348299,38.2765041 24.5125,37.4595 C25.1901701,36.6424959 26.1306606,36.234 27.334,36.234 C27.7393354,36.234 28.1319981,36.2941661 28.512,36.4145 C28.8920019,36.5348339 29.2308318,36.7374986 29.5285,37.0225 C29.8261682,37.3075014 30.0668324,37.6874976 30.2505,38.1625 C30.4341676,38.6375024 30.526,39.2359964 30.526,39.958 C30.526,40.2366681 30.5101668,40.5343318 30.4785,40.851 C30.4468332,41.1676683 30.3993337,41.5096648 30.336,41.877 L25.719,41.877 C25.7443335,42.6623373 25.9089985,43.2639979 26.213,43.682 C26.5170015,44.1000021 27.0046633,44.309 27.676,44.309 C28.0813354,44.309 28.4518317,44.2456673 28.7875,44.119 C29.1231683,43.9923327 29.3796658,43.859334 29.557,43.72 L30.26,45.297 Z M27.296,38.172 C26.8146643,38.172 26.4536679,38.3651647 26.213,38.7515 C25.9723321,39.1378353 25.8330002,39.6793299 25.795,40.376 L28.417,40.376 C28.4550002,39.6539964 28.3790009,39.1061685 28.189,38.7325 C27.9989991,38.3588315 27.7013354,38.172 27.296,38.172 Z M36.454,38.742 C36.1499985,38.6279994 35.8713346,38.571 35.618,38.571 C35.2759983,38.571 34.9815012,38.6659991 34.7345,38.856 C34.4874988,39.046001 34.3196671,39.3119983 34.231,39.654 L34.231,46 L31.97,46 L31.97,36.5 L33.699,36.5 L33.965,37.64 L34.041,37.64 C34.2056675,37.2219979 34.4431651,36.8958345 34.7535,36.6615 C35.0638349,36.4271655 35.4216646,36.31 35.827,36.31 C36.1310015,36.31 36.4286652,36.3733327 36.72,36.5 L36.454,38.742 Z M40.729,43.473 C40.729,43.2069987 40.6435009,42.9821676 40.4725,42.7985 C40.3014991,42.6148324 40.0830013,42.4438341 39.817,42.2855 C39.5509987,42.1271659 39.2691682,41.9656675 38.9715,41.801 C38.6738318,41.6363325 38.3920013,41.4336679 38.126,41.193 C37.8599987,40.9523321 37.6415009,40.6610017 37.4705,40.319 C37.2994991,39.9769983 37.214,39.5463359 37.214,39.027 C37.214,38.1403289 37.4546643,37.4563357 37.936,36.975 C38.4173357,36.4936643 39.126662,36.253 40.064,36.253 C40.6213361,36.253 41.1469975,36.3131661 41.641,36.4335 C42.1350025,36.5538339 42.5276652,36.7026658 42.819,36.88 L42.287,38.628 C42.0463321,38.5266662 41.7550017,38.4285005 41.413,38.3335 C41.0709983,38.2384995 40.735335,38.191 40.406,38.191 C39.7853302,38.191 39.475,38.4506641 39.475,38.97 C39.475,39.2106679 39.5604991,39.4101659 39.7315,39.5685 C39.9025009,39.7268341 40.1209987,39.8819992 40.387,40.034 C40.6530013,40.1860008 40.9348318,40.3443325 41.2325,40.509 C41.5301682,40.6736675 41.8119987,40.8794988 42.078,41.1265 C42.3440013,41.3735012 42.5624991,41.6743316 42.7335,42.029 C42.9045009,42.3836684 42.99,42.8206641 42.99,43.34 C42.99,44.2140044 42.7240027,44.9169973 42.192,45.449 C41.6599973,45.9810027 40.8683386,46.247 39.817,46.247 C39.2976641,46.247 38.7878358,46.1836673 38.2875,46.057 C37.7871642,45.9303327 37.3850015,45.7656677 37.081,45.563 L37.708,43.739 C37.9740013,43.8910008 38.2811649,44.0239994 38.6295,44.138 C38.9778351,44.2520006 39.3419981,44.309 39.722,44.309 C40.0133348,44.309 40.253999,44.2425007 40.444,44.1095 C40.6340009,43.9764993 40.729,43.7643348 40.729,43.473 Z M44.377,36.5 L46.638,36.5 L46.638,46 L44.377,46 L44.377,36.5 Z M44.13,33.821 C44.13,33.4409981 44.2503321,33.1275012 44.491,32.8805 C44.7316679,32.6334988 45.0736645,32.51 45.517,32.51 C45.9603355,32.51 46.3149987,32.6303321 46.581,32.871 C46.8470013,33.1116679 46.98,33.4283314 46.98,33.821 C46.98,34.2136686 46.8470013,34.5239989 46.581,34.752 C46.3149987,34.9800011 45.9603355,35.094 45.517,35.094 C45.0736645,35.094 44.7316679,34.9768345 44.491,34.7425 C44.2503321,34.5081655 44.13,34.2010019 44.13,33.821 Z M47.721,36.5 L48.766,36.5 L48.766,34.714 L51.027,34.011 L51.027,36.5 L52.87,36.5 L52.87,38.514 L51.027,38.514 L51.027,42.656 C51.027,43.2006694 51.0808328,43.5869989 51.1885,43.815 C51.2961672,44.0430011 51.4893319,44.157 51.768,44.157 C51.958001,44.157 52.1289992,44.1380002 52.281,44.1 C52.4330008,44.0619998 52.5976658,44.0050004 52.775,43.929 L53.06,45.734 C52.7813319,45.873334 52.4583352,45.9904995 52.091,46.0855 C51.7236648,46.1805005 51.3373354,46.228 50.932,46.228 C50.2099964,46.228 49.6685018,46.0190021 49.3075,45.601 C48.9464982,45.1829979 48.766,44.4800049 48.766,43.492 L48.766,38.514 L47.721,38.514 L47.721,36.5 Z M57.031,41.839 L57.278,43.321 L57.373,43.321 L57.544,41.82 L58.646,36.5 L60.964,36.5 L58.589,45.069 C58.3736656,45.8163371 58.171001,46.4876637 57.981,47.083 C57.790999,47.6783363 57.5883344,48.1849979 57.373,48.603 C57.1576656,49.0210021 56.9138347,49.3408322 56.6415,49.5625 C56.3691653,49.7841678 56.0430019,49.895 55.663,49.895 C55.3969987,49.895 55.1405012,49.8728336 54.8935,49.8285 C54.6464988,49.7841664 54.4343342,49.7113338 54.257,49.61 L54.637,47.672 C54.8016675,47.7353337 54.9694991,47.7638334 55.1405,47.7575 C55.3115009,47.7511666 55.4698326,47.6878339 55.6155,47.5675 C55.7611674,47.4471661 55.8909994,47.2603346 56.005,47.007 C56.1190006,46.7536654 56.2139996,46.4180021 56.29,46 L52.984,36.5 L55.701,36.5 L57.031,41.839 Z M74.036,39.141 L74.302,36.595 L74.207,36.595 L73.504,38.875 L71.338,43.549 L70.54,43.549 L68.241,38.856 L67.538,36.557 L67.424,36.557 L67.785,39.122 L67.785,46 L65.524,46 L65.524,32.7 L67.823,32.7 L70.597,38.457 L71.053,40.11 L71.129,40.11 L71.566,38.419 L74.169,32.7 L76.43,32.7 L76.43,46 L74.036,46 L74.036,39.141 Z M77.76,41.25 C77.76,39.5653249 78.08933,38.3113375 78.748,37.488 C79.40667,36.6646626 80.3249941,36.253 81.503,36.253 C82.769673,36.253 83.7133302,36.6709958 84.334,37.507 C84.9546698,38.3430042 85.265,39.5906584 85.265,41.25 C85.265,42.9473418 84.93567,44.2044959 84.277,45.0215 C83.61833,45.8385041 82.6936726,46.247 81.503,46.247 C79.0076542,46.247 77.76,44.58135 77.76,41.25 Z M80.097,41.25 C80.097,42.2000048 80.2046656,42.9346641 80.42,43.454 C80.6353344,43.9733359 80.9963308,44.233 81.503,44.233 C81.9843357,44.233 82.3421655,44.0081689 82.5765,43.5585 C82.8108345,43.1088311 82.928,42.3393388 82.928,41.25 C82.928,40.2746618 82.8203344,39.5336692 82.605,39.027 C82.3896656,38.5203308 82.0223359,38.267 81.503,38.267 C81.0596645,38.267 80.7145012,38.4918311 80.4675,38.9415 C80.2204988,39.3911689 80.097,40.1606612 80.097,41.25 Z M91.269,46 L91.269,40.224 C91.269,39.5273299 91.1866675,39.0396681 91.022,38.761 C90.8573325,38.4823319 90.5786686,38.343 90.186,38.343 C89.856665,38.343 89.5716679,38.4443323 89.331,38.647 C89.0903321,38.8496677 88.9193338,39.1029985 88.818,39.407 L88.818,46 L86.557,46 L86.557,36.5 L88.362,36.5 L88.628,37.602 L88.685,37.602 C88.9130011,37.2346648 89.2233314,36.921168 89.616,36.6615 C90.0086686,36.401832 90.5216635,36.272 91.155,36.272 C91.5350019,36.272 91.8738318,36.3289994 92.1715,36.443 C92.4691682,36.5570006 92.7193323,36.743832 92.922,37.0035 C93.1246677,37.263168 93.2766662,37.6114978 93.378,38.0485 C93.4793338,38.4855022 93.53,39.0269968 93.53,39.673 L93.53,46 L91.269,46 Z M95.278,36.5 L97.539,36.5 L97.539,46 L95.278,46 L95.278,36.5 Z M95.031,33.821 C95.031,33.4409981 95.1513321,33.1275012 95.392,32.8805 C95.6326679,32.6334988 95.9746644,32.51 96.418,32.51 C96.8613356,32.51 97.2159987,32.6303321 97.482,32.871 C97.7480013,33.1116679 97.881,33.4283314 97.881,33.821 C97.881,34.2136686 97.7480013,34.5239989 97.482,34.752 C97.2159987,34.9800011 96.8613356,35.094 96.418,35.094 C95.9746644,35.094 95.6326679,34.9768345 95.392,34.7425 C95.1513321,34.5081655 95.031,34.2010019 95.031,33.821 Z M98.622,36.5 L99.667,36.5 L99.667,34.714 L101.928,34.011 L101.928,36.5 L103.771,36.5 L103.771,38.514 L101.928,38.514 L101.928,42.656 C101.928,43.2006694 101.981833,43.5869989 102.0895,43.815 C102.197167,44.0430011 102.390332,44.157 102.669,44.157 C102.859001,44.157 103.029999,44.1380002 103.182,44.1 C103.334001,44.0619998 103.498666,44.0050004 103.676,43.929 L103.961,45.734 C103.682332,45.873334 103.359335,45.9904995 102.992,46.0855 C102.624665,46.1805005 102.238335,46.228 101.833,46.228 C101.110996,46.228 100.569502,46.0190021 100.2085,45.601 C99.8474982,45.1829979 99.667,44.4800049 99.667,43.492 L99.667,38.514 L98.622,38.514 L98.622,36.5 Z M104.55,41.25 C104.55,39.5653249 104.87933,38.3113375 105.538,37.488 C106.19667,36.6646626 107.114994,36.253 108.293,36.253 C109.559673,36.253 110.50333,36.6709958 111.124,37.507 C111.74467,38.3430042 112.055,39.5906584 112.055,41.25 C112.055,42.9473418 111.72567,44.2044959 111.067,45.0215 C110.40833,45.8385041 109.483673,46.247 108.293,46.247 C105.797654,46.247 104.55,44.58135 104.55,41.25 Z M106.887,41.25 C106.887,42.2000048 106.994666,42.9346641 107.21,43.454 C107.425334,43.9733359 107.786331,44.233 108.293,44.233 C108.774336,44.233 109.132165,44.0081689 109.3665,43.5585 C109.600835,43.1088311 109.718,42.3393388 109.718,41.25 C109.718,40.2746618 109.610334,39.5336692 109.395,39.027 C109.179666,38.5203308 108.812336,38.267 108.293,38.267 C107.849664,38.267 107.504501,38.4918311 107.2575,38.9415 C107.010499,39.3911689 106.887,40.1606612 106.887,41.25 Z M117.831,38.742 C117.526998,38.6279994 117.248335,38.571 116.995,38.571 C116.652998,38.571 116.358501,38.6659991 116.1115,38.856 C115.864499,39.046001 115.696667,39.3119983 115.608,39.654 L115.608,46 L113.347,46 L113.347,36.5 L115.076,36.5 L115.342,37.64 L115.418,37.64 C115.582667,37.2219979 115.820165,36.8958345 116.1305,36.6615 C116.440835,36.4271655 116.798665,36.31 117.204,36.31 C117.508002,36.31 117.805665,36.3733327 118.097,36.5 L117.831,38.742 Z" id="Diversity-Monitor" fill="#5C6BC0"></path>
            <path d="M7.71,11.14 L14.19,11.14 L14.19,20.44 C13.4499963,21.1400035 12.5850049,21.6449985 11.595,21.955 C10.604995,22.2650015 9.6200049,22.42 8.64,22.42 C7.4599941,22.42 6.3900048,22.2100021 5.43,21.79 C4.4699952,21.3699979 3.65500335,20.7150044 2.985,19.825 C2.31499665,18.9349956 1.79500185,17.8050069 1.425,16.435 C1.05499815,15.0649932 0.87,13.4200096 0.87,11.5 C0.87,9.49999 1.0899978,7.8100069 1.53,6.43 C1.9700022,5.0499931 2.55499635,3.92500435 3.285,3.055 C4.01500365,2.18499565 4.86499515,1.55500195 5.835,1.165 C6.80500485,0.77499805 7.8299946,0.58 8.91,0.58 C9.8700048,0.58 10.744996,0.66499915 11.535,0.835 C12.3250039,1.00500085 12.9799974,1.1999989 13.5,1.42 L12.72,4.69 C12.319998,4.5099991 11.8550026,4.3600006 11.325,4.24 C10.7949973,4.1199994 10.1500038,4.06 9.39,4.06 C8.6899965,4.06 8.05500285,4.1999986 7.485,4.48 C6.91499715,4.7600014 6.43500195,5.199997 6.045,5.8 C5.65499805,6.400003 5.35500105,7.17499525 5.145,8.125 C4.93499895,9.07500475 4.83,10.2099934 4.83,11.53 C4.83,14.0700127 5.21499615,15.939994 5.985,17.14 C6.75500385,18.340006 7.7699937,18.94 9.03,18.94 C9.430002,18.94 9.81499815,18.8800006 10.185,18.76 C10.5550018,18.6399994 10.8799986,18.4500013 11.16,18.19 L11.16,13.9 L7.71,13.42 L7.71,11.14 Z M22.71,12.55 L23.01,16.33 L23.13,16.33 L23.46,12.49 L26.28,1 L28.92,1 L31.65,12.55 L31.98,16.33 L32.1,16.33 L32.43,12.49 L34.29,1 L38.13,1 L33.42,22.15 L30.75,22.15 L27.81,10.57 L27.42,7.3 L27.27,7.3 L26.91,10.6 L23.97,22.15 L21.18,22.15 L16.5,1 L20.67,1 L22.71,12.55 Z M48.27,17.26 L43.32,17.26 L42.09,22 L38.34,22 L44.43,0.85 L47.4,0.85 L53.52,22 L49.56,22 L48.27,17.26 Z M44.13,14.14 L47.61,14.14 L46.41,9.25 L45.93,5.95 L45.81,5.95 L45.3,9.28 L44.13,14.14 Z M63.66,16.6 C63.66,15.9599968 63.4700019,15.4150022 63.09,14.965 C62.7099981,14.5149978 62.2350028,14.090002 61.665,13.69 C61.0949971,13.289998 60.4750033,12.8800021 59.805,12.46 C59.1349966,12.0399979 58.5150028,11.5500028 57.945,10.99 C57.3749971,10.4299972 56.9000019,9.7700038 56.52,9.01 C56.1399981,8.2499962 55.95,7.3200055 55.95,6.22 C55.95,5.1999949 56.1049984,4.33500355 56.415,3.625 C56.7250015,2.91499645 57.1499973,2.33500225 57.69,1.885 C58.2300027,1.43499775 58.8699963,1.10500105 59.61,0.895 C60.3500037,0.68499895 61.1399958,0.58 61.98,0.58 C63.0000051,0.58 63.9499956,0.679999 64.83,0.88 C65.7100044,1.080001 66.4399971,1.3499983 67.02,1.69 L65.85,5.02 C65.5099983,4.7799988 65.0050033,4.560001 64.335,4.36 C63.6649966,4.159999 62.9400039,4.06 62.16,4.06 C61.3799961,4.06 60.7800021,4.2199984 60.36,4.54 C59.9399979,4.8600016 59.73,5.3299969 59.73,5.95 C59.73,6.5100028 59.9199981,7.00499785 60.3,7.435 C60.6800019,7.86500215 61.1549971,8.279998 61.725,8.68 C62.2950028,9.080002 62.9149966,9.49499785 63.585,9.925 C64.2550033,10.3550022 64.8749971,10.8549972 65.445,11.425 C66.0150028,11.9950029 66.4899981,12.6649962 66.87,13.435 C67.2500019,14.2050039 67.44,15.1199947 67.44,16.18 C67.44,17.2400053 67.2850016,18.1599961 66.975,18.94 C66.6649984,19.7200039 66.2250028,20.3649974 65.655,20.875 C65.0849971,21.3850026 64.400004,21.7699987 63.6,22.03 C62.799996,22.2900013 61.9100049,22.42 60.93,22.42 C59.6899938,22.42 58.6050046,22.3000012 57.675,22.06 C56.7449953,21.8199988 56.0300025,21.5500015 55.53,21.25 L56.76,17.86 C57.160002,18.1000012 57.7099965,18.3399988 58.41,18.58 C59.1100035,18.8200012 59.859996,18.94 60.66,18.94 C62.66001,18.94 63.66,18.1600078 63.66,16.6 Z" id="gwas" fill="#212C8F"></path>
        </g>
    </g>
</svg>